<?xml version="1.0" encoding="utf-8"?>
<!-- Generator: Adobe Illustrator 24.0.1, SVG Export Plug-In . SVG Version: 6.00 Build 0)  -->
<svg version="1.1" id="Layer_1" xmlns="http://www.w3.org/2000/svg" xmlns:xlink="http://www.w3.org/1999/xlink" x="0px" y="0px"
	 viewBox="0 0 1920 1080" style="enable-background:new 0 0 1920 1080;" xml:space="preserve">
<style type="text/css">
	.st0{fill:none;stroke:#000000;stroke-width:2;stroke-miterlimit:10;}
</style>
<path id="XMLID_1_" class="st0" d="M39.3-57.19c57.35-22.9,119.03-45.11,181.11-54.33c20.7-3.08,41.44-4.71,62.1-4.78
	C344-121,404-110,464-109c61,2,122,3,183-6c64.5-9,129.56-13.5,190.97,3.8C858.44-105.44,878.5-97.25,898-86
	c89,50,184,113,292.01,99c29.62-4,59.2-7.65,88.73-10.93c104.67-11.61,208.83-18.46,312.75-18.95c11.55-0.05,23.09-0.03,34.64,0.07
	C1677-17,1727-10,1778-18c56-8,109-28,165.08-28.59"/>
<path id="XMLID_2_" class="st0" d="M40.14-39.36c51.29-27.21,106.14-45.69,161.9-53.9c27.88-4.1,55.98-5.64,84-4.95
	C365-97,448-111,526-85c50,18,102,1,155-10c33.5-7,66.5-9.5,98.62-6.12S843-88.5,873.04-72.05C971-19,1076,49,1193.03,30.97
	c29.59-4.72,59.12-8.92,88.57-12.58c77.31-9.6,154.06-15.42,230.49-17.45c12.74-0.34,25.47-0.57,38.19-0.7C1622-2,1693,6,1765-2
	c63-6,122-37,186.07-32.18"/>
<path id="XMLID_3_" class="st0" d="M40.39-21.31C89.2-43.15,140.6-64.83,193.55-77.16c26.48-6.17,53.34-10,80.46-10.47
	C370-97,461-77,555-52c14,3,29,2,44-1c48-9.5,95.75-21,142.75-22.88c23.5-0.94,46.81,0.53,69.89,5.85C827-67,842-62,855-54
	C964,9,1079,68,1204.05,46.94c29.2-5.19,58.33-9.72,87.34-13.56c66.65-8.83,132.73-14.02,198.46-15.96
	c10.95-0.32,21.9-0.55,32.88-0.71C1652,18,1779,21,1904-20c17-5,34-4,51.05-1.61"/>
<path id="XMLID_4_" class="st0" d="M39.95-2.87c47.03-22.07,95.54-44.6,145.8-58.37c25.13-6.88,50.69-11.58,76.72-12.92
	C356-83,448-65,535-28c33,13.5,66.75,9.25,101,1.12S705-47,740.01-49C766-52,793-51,816-39c124,64,255,113,394.02,103.02
	c25.66-1.98,51.64-5.69,77.98-11.02c56.05-11.21,111.66-18.01,166.92-21.27c11.05-0.65,22.09-1.16,33.17-1.56
	C1628,29,1767,35,1904-9c16-5,34-3,50.68-0.02"/>
<path id="XMLID_5_" class="st0" d="M38.72,16.16c55.64-29.58,117.71-59.87,181-72.52c21.1-4.22,42.33-6.47,63.5-6.53
	C374-73,458-36,539,2c29,14,62,15,94,3c55-19,118-41,174-15c143,67,296,116,450.98,77.72c30.57-3.84,61.06-7.09,91.47-9.71
	c21.72-1.87,43.4-3.42,65.05-4.64c10.82-0.61,21.64-1.13,32.55-1.63C1587,39,1731,61,1867,10c27-10,56-13,83.68-6.3"/>
<path id="XMLID_6_" class="st0" d="M36.63,35.99C93.81,2.49,160.66-30.5,227.83-42.75c22.39-4.08,44.82-5.95,66.94-5.79
	C337-50,379-49,418-32c34.5,15,68.25,41,103.88,59.12c17.81,9.06,36.09,16.16,55.17,18.92C587,48,596,48,606,46c68-16,135-55,201-24
	c150,71,315,91,475.3,56.63c29.66-3.96,59.22-7.1,88.68-9.45c8.42-0.67,16.83-1.28,25.23-1.82c8.4-0.54,16.79-1.02,25.24-1.46
	C1530,58,1638,61,1747,52c67-6,129-49,197.08-35.14"/>
<path id="XMLID_7_" class="st0" d="M33.63,56.82c54.68-32.91,119.28-68.62,184.82-83.84c21.85-5.08,43.8-7.88,65.53-8.02
	c72.76-11.96,133.14,19.92,190.42,60.23C493.5,38.62,512.25,53,531,67c49,36,107,5,159-10c51-14,104-14,152,9
	c132,63,283,51,421.55,29.64c30.7-4.49,61.26-8.09,91.71-10.79c8.7-0.77,17.38-1.47,26.07-2.09C1507,70,1632,75,1760,60
	c60-6,116-41,175.73-29.08"/>
<path id="XMLID_8_" class="st0" d="M29.73,78.86C86.37,39.93,157.18,0.71,228.22-13.39c23.68-4.7,47.38-6.77,70.56-6.34
	C345-22,393-18,430,14c14.5,11.75,29.06,26.06,44.12,40.39s30.62,28.67,47.12,40.48C546,112,576,129,605,119c97-33,196-37,295-5
	c129,42,270,12,402.8-8.63c11.99-1.73,24-3.32,36.03-4.73c12.03-1.41,24.09-2.64,36.2-3.63C1502,82,1629,82,1758,70
	c57-5,111-37,168.4-23.5"/>
<path id="XMLID_9_" class="st0" d="M24.99,102.27C79.99,64.63,147.5,22.82,216,4.91c22.83-5.97,45.78-9.28,68.4-9.37
	C346-12,408,8,451,56c18.5,21.5,36,48.75,56.5,69.62C526,145,551,160,578,155c47.6-8.8,95.36-18.56,142.64-23.65
	c11.82-1.27,23.61-2.25,35.36-2.85c59-3.5,119,4.5,172.03,30.49c12.17-0.59,24.37-1.29,36.57-2.08
	c109.79-7.12,219.51-21.67,328.5-37.48c13.45-1.99,26.92-3.79,40.42-5.35c13.5-1.57,27.05-2.89,40.75-3.98C1492,96,1610,90,1729,84
	c43-2,83-14,127-22c21-3,41-4,60.73,2.08"/>
<path id="XMLID_10_" class="st0" d="M19.49,127.17c55.25-41.59,126.63-88.63,198.45-107.9c23.94-6.42,47.93-9.77,71.36-9.49
	C332,7,378,13,411,44c15.75,15.5,31.38,34.69,47.62,54.2s33.12,39.36,51.4,56.13C536,180,575,202,610,190
	c11.6-4,23.25-7.54,34.98-10.66C749,152,859,157,961.07,189.98c12.68-2.6,25.45-5.18,38.22-7.71
	c89.46-17.72,179.6-33.13,269.85-46.19c22.67-3.83,45.41-7.04,68.21-9.57c7.64-0.84,15.28-1.6,23.02-2.35C1492,104,1624,97,1758,91
	c23-1,45-6,68-6c27,0,55-4,81.59-1.37"/>
<path id="XMLID_11_" class="st0" d="M13.4,153.67c54.8-44.84,126.7-95.76,199.78-116.96c24.36-7.07,48.85-10.84,72.86-10.46
	C333,24,385,32,417,72c13.5,16.5,26.38,35.25,39.61,53.94s26.83,37.31,41.79,53.51c11.8,13.28,26.2,25.42,42.27,33.61
	c8.04,4.1,16.49,7.21,25.25,8.98C572,223,578,225,584,224c13.5-2.7,26.94-5.33,40.33-7.84C715,199,808,187,899.83,200.08
	c12.98,1.84,25.93,4.19,38.89,7.09c12.95,2.9,25.9,6.35,38.86,10.41c10.7-0.09,21.42-2.07,31.42-6.57c93-42,196-50,295.1-64.5
	c9.69-1.28,19.38-2.45,29.05-3.52C1496,115,1660,90,1827,104c22,2,43,6,66-1c3-1,5,0,7.33,1.56"/>
<path id="XMLID_12_" class="st0" d="M6.92,181.79C71.48,134.7,138.81,73.99,216.53,52.06c25.91-7.31,52.97-10.34,81.4-8.2
	C344,42,389,60,418,97c13.25,17.25,25.5,36.19,37.95,54.91s25.11,37.21,39.23,53.44c7.2,8.91,15.36,16.72,24.27,23.31
	c8.91,6.59,18.58,11.97,28.86,15.98c8.84,3.18,17.77,5.27,26.73,6.06C581,251,587,252,593,251c133-26,262-50,392-8
	c7,2,14,1,21.16,0.73C1019,242.5,1031.5,238.5,1043,231c80-53,171-54,257.83-69.2c13.19-2.28,26.38-4.3,39.65-6.09
	C1491,125,1645,96,1802,117c16,2,22,21,36,23c20,3,37-19,58.02-13.02"/>
<path id="XMLID_13_" class="st0" d="M0.31,211.47c52.34-42.74,120.02-101.35,190.1-131.66c23.36-10.1,46.99-17.06,70.41-19.24
	C317,52,374,71,409,119c14.5,19.5,28.38,40.12,42.69,60.16s29.09,39.41,45.43,56.12c7.47,7.93,15.7,15.13,24.7,21.3
	c11.09,7.21,22.89,12.07,35.16,14.62C563,273,569,274,575,273c147-15,290-50,436-5c12,4,25-1,36-8c10.1-6.3,20.31-12.16,30.62-17.62
	c69.58-36.83,143.62-55.31,218.44-66.8c12.47-1.92,24.98-3.63,37.6-5.27C1465,144,1597,113,1733,123c19,1,41,0,53,17
	c27,40,64,20,97,7c5-1,9,1,12.32,5.66"/>
<path id="XMLID_14_" class="st0" d="M-6.1,242.6c52.05-45.8,121.58-109.7,193.71-142.53c24.05-10.94,48.38-18.43,72.46-20.65
	C309,73,360,87,393,127c12.25,15.5,23.38,31.81,34.3,48.11s21.64,32.58,33.08,48.02c5.83,9.36,12.38,17.89,19.55,25.63
	c7.17,7.74,14.96,14.68,23.33,20.83c7.69,4.85,15.83,8.62,24.27,11.46c8.45,2.84,17.19,4.77,25.94,6.1C631,299,708,277,786,268
	c49-5,95-3,144,4c42,6,82,27,123.95,18.17c7.74-2.01,15.05-5.33,22.05-10.17c69-47.25,142.5-72.56,218.39-87.33
	c12.65-2.46,25.4-4.63,38.5-7.07C1461,154,1592,122,1726,134c14,1,29,3,40,13c14,12,14,32,20,48c1,3,3,7,6,6
	c35-5,79-55,107.36-16.76"/>
<path id="XMLID_15_" class="st0" d="M-11.97,274.99c51.99-45.5,120.23-114,191.6-151.12c23.79-12.37,47.93-21.26,71.93-24.65
	c79.08-15.17,128.67,37.85,171.72,96.11c14.35,19.42,27.98,39.42,41.74,57.63c7.42,10.75,15.41,20.17,24.17,28.26
	c9.98,6.1,20.22,10.73,30.68,14.17C552,306,586,316,621,310c146-26,281-33,426,2c16,3,31,4,47,0.12c13.25-2.88,25.5-8.62,35-19.12
	c44.38-51.25,103.2-70.08,164.64-81.58c12.27-2.31,24.72-4.38,37.49-7.03C1346,201,1361,198,1376,193c113-38,229-66,350-47
	c17,2,30,16,31,34c2,18,2,57,23,49c45-18,98-66,132.77-7.3"/>
<path id="XMLID_16_" class="st0" d="M-17.08,308.5c68.05-57,158.74-161.77,251.04-184.4c23.08-5.66,46.25-6.24,69.08-0.3
	c59.22,14.4,93.71,62.44,127.5,110.87c5.63,8.07,11.25,16.15,16.96,24.06c5.71,7.91,11.52,15.65,17.55,23.03
	c9.16,9.37,19.18,16.43,29.84,21.67c10.66,5.24,21.97,8.65,33.5,10.99C570,326,613,334,657,325c145-28,280-26,421,11
	c9,3,19,2,28.25,2.12c15-1.12,28.75-5.62,38.75-17.12c40-44.38,90.94-73.91,145.49-91.77c10.9-3.58,21.97-6.72,33.34-9.91
	C1441,185,1561,147,1685,157c16,1,35,5,43,22c7,16,3,35,10,51c8,17,27,31,46,19c28-19,58-58,94-37c24,14,40,35,62.68,49.96"/>
<path id="XMLID_17_" class="st0" d="M-21.28,342.94c72.73-62.45,135.55-144.39,225.07-183.86C221.69,151.19,240.67,145,261,141
	c42-9,80,15,108,45c14.75,16.25,28.06,33.81,41.05,51.53c6.49,8.86,12.9,17.76,19.37,26.55c6.47,8.79,12.99,17.48,19.71,25.91
	c9.96,12.67,22.48,21.56,36.43,27.6c6.97,3.02,14.3,5.33,21.83,7.05C559,334,611,355,663,346c148-23,289-29,430.39,8.93
	c12.46,1.32,24.53,2.16,36.61,3.07c16,1,35-2,44-15c31.25-44.38,72.66-72.73,118.39-91.63c9.14-3.79,18.46-7.25,28.04-10.74
	C1383,217,1445,189,1514,180c61-8,156-42,190,22c8,14,1,32,11,47c14,19,40,31,61,23c27-11,44-44,74-47c33-4,56,28,81.18,45.57
	c6.66,5.7,12.96,11.83,18.88,18.3c5.92,6.47,11.45,13.27,16.55,20.3"/>
<path id="XMLID_18_" class="st0" d="M-24.46,378.14C62,303,134,200,249,167c20.5-6,40.99-3.57,59.76,3.86C328,178,344,189,358,204
	c14.25,16.25,27.5,33.19,40.56,50.08c6.53,8.45,13.02,16.88,19.55,25.21s13.13,16.56,20.12,24.5c9.22,7.65,18.87,13.77,28.86,18.62
	s20.32,8.42,30.91,11C549,345,600,363,653,367c15,1,26,11,40,13c10,1,19-1,27-6c116-69,243-35,360,3c14,5,29,4,43.6,3.78
	c12.26-1.14,24.16-3.34,35.7-6.56c46.15-12.89,86.37-42.22,117.7-86.22c5-6.83,10.75-12.64,17.09-17.59
	c6.33-4.96,13.25-9.07,20.65-12.69C1421,217,1532,172,1650,190c13,2,26,7,29,22c7,32,15,63,48,75c47,18,76-20,111-40
	c18-10,42-2,58.45,10.66c9.23,5.32,18.34,11.87,26.86,19.38c25.56,22.54,44.42,54.62,53.14,86.29"/>
<path id="XMLID_19_" class="st0" d="M-26.56,413.89C63,338,131,227,251,193c20.5-5.5,40.25-2.52,58.12,5.17C332,207,349,225,366,243
	c13.75,15.75,26.75,32.25,39.75,48.61c6.5,8.18,13.08,16.3,20.41,23.99c8.73,6.67,17.82,12.09,27.2,16.46
	c9.38,4.37,19.06,7.69,28.95,10.17C555,358,632,372,682,437c2,3,8,1,10-1c102-134,269-93,397-35c9,4,19,5,27.79,5.68
	c10.25,0.58,20.27,0.54,30.06-0.08c39.16-2.49,75.02-14.35,103.15-46.6c7-8,14.11-15.94,21.4-23.66
	c7.29-7.72,14.74-15.21,22.44-22.3C1385,237,1518,182,1636,217c24,7,23,39,36,59c27,41,84,43,123,21c34-20,69-52,105.25-19.52
	c9.17,5.73,17.42,12.62,24.75,20.39c29.33,31.09,43.98,76.35,43.93,118.79"/>
<path id="XMLID_20_" class="st0" d="M-27.56,449.97C52.91,387.5,109.37,286.8,201.77,241.09C220.25,231.94,240.17,225,262,221
	c28-6,55,6,75,25c17,16.75,32.94,34.62,48.69,52.55c7.88,8.96,15.82,17.89,24.7,26.33c18.15,13.03,37.58,21.37,57.81,26.52
	c10.11,2.58,20.4,4.41,30.66,5.95C544,365,585,381,622,409c28,22,28,67,63,81c10,4,15-7,17-14c59-172,262-123,387-55
	c11,6,25,8,38.44,8.03c11.24,0.28,22.31,0.04,33.24-0.88c32.78-2.78,64.22-11.75,93.32-32.15c10.5-7.33,20.28-15.67,29.68-24.44
	c9.4-8.77,18.42-17.99,27.4-27.08C1384,260,1516,203,1622,247c21,47,64,76,117.49,70.67c9.43,0.09,18.87-0.35,28.28-1.42
	c18.83-2.13,37.54-6.76,55.92-14.71c9.19-3.98,18.3-8.79,27.33-14.56c9.83-6.3,19.59-7.65,29-5.55c9.45,2.07,18.54,7.57,26.85,15.07
	c16.62,15,30.12,38,37.12,57.5c12,35,6,71,8.58,106.8"/>
<path id="XMLID_21_" class="st0" d="M-27.53,486.16C38,434,90,370,150,309c28-28,64.75-50.5,101.38-56.75s73.08,3.61,100.44,40.35
	c6.77,9.03,13.8,17.78,21.09,26.24c19.57,22.62,46.4,33.9,75.05,40.66c9.55,2.25,19.3,4,29.05,5.5c42,7,90,7,121,42
	c23,27,27,61,47,91c15,21,33,45,59,43c14-1,21-18,20-31c-6-71,42-132,113-143c96-15,177,36,259,73c15,7,30,10,45.62,10.25
	c11.07,0.95,22.06,1.47,32.88,1.35c43.3-0.48,84.1-11.2,118.5-45.6c7.17-6.83,14.08-14.22,20.93-21.81
	c6.84-7.59,13.61-15.39,20.49-23.04C1387,291,1476,254,1563,262c27,2,45,22,62,42c19,22,49,24,74.84,28.63
	c12.37,1.7,24.82,2.91,37.22,3.28C1774.25,337,1811,330.5,1844,307c31-22,64,3,80,31c26,46,9,95,9,143c0,5,3,10,4.38,14.78"/>
<path id="XMLID_22_" class="st0" d="M-26.57,522.23C-11,511,3,498,19,485c75.83-63.33,148.19-207.92,248.91-199.95
	c20.14,1.59,41.42,9.29,64.09,24.95c10,7,21,14,29.05,22.98c25.48,22.13,55.05,33.15,86.43,38.39c10.46,1.75,21.12,2.85,31.88,3.57
	C536,377,592,408,615,461c21,47,44,125,98,119c44-6,29-74,31-114c2-30,22-54,47-68c62-35,134-20,195,9c48,22,89,60,143.15,65.26
	c11.88,0.39,23.69,0.4,35.39-0.03c61.42-2.27,119.84-16.73,165.89-57.78c7.67-6.84,15-14.42,21.93-22.82C1402,304,1537,258,1623,331
	c15,12,36,12,55.82,14.09c9.99,1.05,20.02,1.83,30.06,2.27c50.18,2.23,100.5-3.86,146.12-26.36c30-14,57,14,65,42c11,37-2,74-5,111
	c-2,18,1,36,12.11,50.97"/>
<path id="XMLID_23_" class="st0" d="M-24.81,557.99C54,507,107,430,174,363c24-23.5,54.25-39.75,84.88-43.75
	c22.97-3,46.15,0.89,67.06,13.78c6.97,4.3,13.72,9.58,20.55,15.75c25.13,18.91,55.04,25.89,86.14,31.15
	C443,381.69,453.5,383.25,464,385c47,3,100,10,125,57c36,66,59,177,140,170c50-3,38-93,33-141c-4-45,37-74,78-81c51-9,99,4,144,26
	c53,25,97,73,158.22,73.15c12.31,0.43,24.58,0.53,36.77,0.21c24.38-0.64,48.42-3,71.63-7.97c11.61-2.49,23.01-5.63,34.14-9.53
	C1307,463,1329,454,1347.96,438.32c9.85-7.43,19.32-15.84,28.34-25.36C1421,334,1526,298,1610,351c18,11,40,9,60.81,10.51
	c11.11,0.31,22.23,0.23,33.35-0.17c55.59-1.99,111.21-11.84,166.84-19.34c32-5,41,37,39,65c-4,48-35,110,13.71,144.8"/>
<path id="XMLID_24_" class="st0" d="M-22.39,593.28C10,574,38,552,66,526c59.2-56,123.52-171.52,203.2-170.94
	c9.96,0.07,20.16,1.96,30.64,5.99c42.58,23.98,88.87,31.96,136.26,34.46c11.85,0.62,23.77,0.9,35.68,1.11C518,396,562,420,584,460
	c39,72,73,191,172,179c25-56,26-123,32-184c6-64,95-63,146-47c59,19,105,57,159,88c7,3,14,6,20.97,8.24
	c13.31,2.58,26.63,4.16,40.03,5.76c13.25,1.5,26.41,2.19,39.42,2.07s25.88-1.03,38.56-2.73c53.35-6.12,103.9-28.67,145.72-62
	c8.36-6.67,16.38-13.76,24-21.25C1433,378,1490,355,1548,366c41,8,79,16,119.03,12.89c10.83-0.51,21.64-1.35,32.45-2.41
	C1753.5,371.2,1807.25,360.5,1861,358c23-1,31,29,29,49c-7,61-31,137,35.14,173.76"/>
<path id="XMLID_25_" class="st0" d="M-19.47,627.95c29.05-13.85,55.08-31.51,79.17-51.71c8.03-6.73,15.85-13.75,23.49-20.99
	C92,547,100,538,109,530c54-56,98-143,185-137c49.38,3.12,98.36,7.81,147.44,10.89c9.82,0.62,19.64,1.17,29.41,1.82
	C559,407,585,500,613,567c23,56,87,101,149,95c7,0,13-7,14-13c12-54,25-101,38-154c4-17-7-34-1-51c13-37,60-38,94-33
	c78,12,128,71,194,108c9,5,19,7,29.16,8.76c11.9,1.25,23.84,2.36,35.84,3.24c12.5,1,25.02,1.31,37.49,0.96
	c12.46-0.35,24.89-1.36,37.07-2.84c64.08-3.09,115.54-35.36,167.22-70.71c8.61-5.89,17.23-11.87,25.91-17.82
	C1489,389,1565,385,1637.06,387.76c12.33-0.63,24.65-1.37,36.98-2.15C1711,383.25,1748,380.5,1785,379c27-1,69-15,80,17
	c12,40-7,80-4,121c3,43,40,69,67.96,97.29"/>
<path id="XMLID_26_" class="st0" d="M-16.16,661.9c12.4-4.49,24.16-9.77,35.41-15.73c11.24-5.96,21.96-12.59,32.27-19.78
	C116,578,163,515,221,458c19-18,42-29,67-32c44-5.5,87.75-7.25,131.38-7.25c10.91,0,21.8,0.11,32.7,0.3C543,412,575,503,597,578
	c20,69,102,104,173,110c9,1,20-5,22-14c16-60,18-117,44-174c7-15-3-35,7-50c36-51,103-16,146,8c56,32,98,88,165,91
	c12.1,1.6,24.11,2.5,36.02,2.76c11.91,0.26,23.73-0.13,35.39-1.03c83.69,5.45,150.18-42.12,219.53-82.7
	c11.56-6.76,23.2-13.33,35-19.44C1523,421,1573,420,1621.51,411.91c11.54-2.12,23.09-4.39,34.65-6.64
	c57.78-11.23,115.59-21.77,171.84-9.27c19,38,6,83,14,126c11,57,56,92,91.62,131.14"/>
<path id="XMLID_27_" class="st0" d="M-12.6,695.06c13.2-3.51,25.75-8,37.75-13.32C40,675,54,667,68,656c75-58,125-132,205-183
	c49.38-31.88,105.39-41.88,162.68-41.23c11.46,0.13,22.95,0.75,34.33,2.27C508,442,552,467,553,506c0,120,133,190,237,196
	c11,1,23-9,24-20c8-62,16-120,40-178c5-13,3-27,8-40c6-16,23-24,39-23c74,5,121,67,182,104c71,42,156,27,233,19c85-9,149-74,226-108
	c10.67-4.83,21.71-8.56,33.05-11.49C1649,429,1729,389,1803,414c12,3-10,24-7,38c9,33,20,65,34,96c24,57,65,106,107.62,149.82"/>
<path id="XMLID_28_" class="st0" d="M-8.92,727.37c11.29-2.14,22.11-5.01,32.53-8.52C46,712,66,700,84,684c89-77,162-170,273-212
	c23-8.5,47-14.75,71.38-18.5c8.12-1.25,16.29-2.22,24.47-2.88C491,445,537,470,533,511c-5,45-3,97,40,121c75,42,151,90,237,91
	c19,1,30-19,31-36c1-39-5-79,9-116c10-25,22-49,29-77c3-12,9-24,20-29c28-12,56,6,81,20c57,34,92,98,161,104c46,5,90,10,134,12
	c87.5,2.62,158.16-60.59,235.42-101.9c11.04-5.9,22.21-11.35,33.58-16.1c65-22,129-47,199-57c10-2,26-3,26,7c1,25-27,54-3,75
	c10,10,22,17,31,29c48,72,78,154,141.75,207.47"/>
<path id="XMLID_29_" class="st0" d="M-5.3,758.76c12.16-2.09,24.11-4.72,35.82-7.98C64,741,92,724,119,701
	c91.67-76.67,174.31-191.53,291.32-214.38c11.7-2.28,23.75-3.65,36.18-3.96C472,481,507,491,502,522c-6,38-10,83,28,104
	c100,54,202,128,318,116c21-2,24-29,20-47c-17-74-1-147,47-202c19-22,51,1,73,16c50,34,82,84,143,96c46,9,88,12,131,29
	c22,8,47-3,69-12c59-25,117-62.75,177.5-90.12c12.1-5.47,24.3-10.53,36.63-14.99C1605,501,1658,468,1719,450c8-2,18,3,17,12
	c-5,30-39,80,1,93c13,5,29-1,41,10c48,50,76,112,99,176c10,26,32,50,61.75,47.32"/>
<path id="XMLID_30_" class="st0" d="M-1.98,789.16c12.16-1.53,24.41-3.33,36.59-5.54C82,776,123,752,157,719c70-69,130-149,226-180
	c12-4,27.5-8.25,41.38-8s26.13,5.05,31.66,19.14C467,580,465,621,495,636c83.3,41.3,166.6,87.5,254.7,113.22
	c12.59,3.67,25.27,6.93,38.05,9.7C814,764,840,769,865.98,769c9.52,0.5,18.02-4.25,23.52-11.38s8-16.62,5.5-25.62
	c-17-76-28-166,45-212c20-13,42,5,60,18c26,20,45,42,73,61c48,33,99,44,146,72c70,40,143-44,211-74
	c30-13.12,62.11-31.45,94.96-46.65c10.95-5.07,21.98-9.79,33.04-13.85c44-10.5,86-40.5,132-34.5c9,39-36,104,12,116
	c20,5,45-27,69-11c68,45,66,128,90,197c10,32,52,31,80.37,23.11"/>
<path id="XMLID_31_" class="st0" d="M0.78,818.54c11.62-0.55,23.1-1.57,34.43-3.04C80,810,122,793,159,764c75-61,137-133,226-169
	c7-3,16-2,20,4c17,30,32,62,67.81,69.57c14.11,3.64,28.25,7.24,42.56,11.16c65.81,18.63,130.72,49.2,196.8,72.86
	c11.01,3.94,22.06,7.69,33.14,11.17C800,782,858,791,915.98,784C926,782,928,765,926,754c-17-70-52-158,24-207c15-10,33,0,47,11
	c43,36,83,68,132,101c15,10,23,25,39,35c93,60,181-43,264-79c40-17.33,80.89-37.33,123.85-46.96c10.74-2.41,21.61-4.17,32.63-5.18
	C1607,562,1640,548,1645,575c6,30-12,66,12,88c28,27,62-17,95-13c74,10,66,113,69,173c1,26,16,51,44.08,53.04
	c12.37,1.55,25.17,1.52,38.45-0.37c13.28-1.89,27.03-5.64,41.32-11.52"/>
<path id="XMLID_32_" class="st0" d="M2.75,846.91c10.78-0.61,21.54-1.31,32.27-2.15s21.43-1.84,32.08-3.06
	c51.95-3.35,96.18-23.52,137.54-50.73c10.34-6.8,20.5-14.05,30.56-21.58C256,755,275,737,294.92,721.99
	c9.95-8.07,19.95-16.11,30.08-23.99c35-27,73-3,109.43,0.05c8.78,0.72,17.73,1.73,26.7,3.07c11.61,2.48,23.21,5.1,34.8,7.73
	s23.2,5.3,34.84,7.93c49.29,12.48,97.43,27.81,145.64,42.81c12.05,3.75,24.11,7.47,36.17,11.14C786,792,862,820,937.88,811.35
	C950.4,807.21,958.5,798,955,780c-12-64-65-165,19-196c68,26,110,87,170,131c91,68,183-30,265-66c52-23,108-58,167-41
	c10,2,15,14,15,24c1,31,1,74,39,81c37,7,71-7,106-10c76-5,52,99,56,150c3,43,42,76,84.57,67.4c11.46-0.52,23.14-2.35,35.02-5.67
	s23.99-8.15,36.32-14.64"/>
<path id="XMLID_33_" class="st0" d="M3.8,874.33c21.05-0.33,42.15-1.08,63.18-2.56c10.51-0.74,21.01-1.67,31.46-2.83
	c20.64-1.98,40.69-5.72,60.27-10.96c9.79-2.62,19.46-5.62,29.04-8.96C202,844,216,839,229,831c88-53,178-111,283.24-83.05
	c11.98,1.86,23.86,4.09,35.74,6.41c7.92,1.55,15.85,3.14,23.91,4.79c22.68,3.81,45.25,8.73,67.76,14.27
	c11.25,2.77,22.49,5.69,33.71,8.71C771,819,874,836,978.44,839.58C988.84,838.87,993,823,992,811c-5-55-79-151-10-167
	c52-12,89,50,137,83c47,32,98,30,146,10c79-34,149-95,236-96c17-1,29,13,33,29c2.25,9.25,3.81,18.62,5.3,27.9
	C1546,799,1662,748,1727,748c19,0,34,16,35,36c2,64-8,151,66,178c27,10,56,1,81.74-7.06c13.32-4.86,26.9-11.6,40.77-20.47"/>
<path id="XMLID_34_" class="st0" d="M4,901c0,0,23.53-0.06,64.28-0.99c12.29-0.5,24.64-1.06,37-1.79
	c12.36-0.73,24.73-1.64,37.06-2.85c11.83-0.3,23.44-1.43,34.85-3.25C191,890,206,887,219,881c82-40,158-99,252-95
	c97,4,189,22,287,42c78,17,149,23,227,40c10,2,20,2,29.96-1.3c11.29-4.7,18.54-14.2,15.04-30.7c-10-42-35-79-29-122c2-13,18-15,28-8
	c79,53,162,92,253,40c54-31,105-64,167-74c19-2,39,8,44,27c3,10.75,5.12,21.75,7.11,32.75c1.98,11,3.84,21.98,6.42,32.4
	C1510,798,1540,819,1574,818c47-2,121-49,146,5c15,33,11,73,23,108c26,72,112,101,173.81,58.23c11.84-5.92,23.77-13.25,35.82-22.18"
	/>
<path id="XMLID_35_" class="st0" d="M4,927.5c0,0,23.6,0,65.4-0.14c27.59,0.82,54.94-0.17,82.05-2.76
	c9.04-0.86,18.05-1.9,27.04-3.12C235,917,280,880,330,853c55-28,114-37,175-27c122,19,237,28,358,37c43,3,85,14,127,27
	c21,6,44,10,65.09,1.58c7.41-3.33,14.16-8.33,19.91-15.58c6-7,3-18,0-27c-9-19-20-38-21-60c0-10,10-15,19-12c47,17,95,26,144,10
	c68-23,123-65,195-81c23-5,41,10,47,31c4.33,18.33,7.89,37.33,12.61,55.74c2.36,9.2,5.01,18.26,8.21,26.98
	C1500,892,1584,867,1639,864c11-1,21,7,26,16c31,57,49,124,110,157c50,28,105,8,148.14-20.55c10.66-5.93,21-12.13,31.03-18.47"/>
<path id="XMLID_36_" class="st0" d="M4,954c0,0,23.6,0,65.57,0c32.04-0.38,64.43,0.09,96.69-0.76c10.75-0.28,21.49-0.71,32.18-1.43
	C220,950,240,944,260,931c59-39,112-96,187-76c117,32,229,37,348,24c70-8,137,10,204,30c15,5,30,9,46.43,9.39
	c12.76,0.24,24.99-0.97,36.45-3.51C1116.25,907.25,1144,888,1149,848c58-41,131-62,196-97c13-7,28-10,42-11c13,0,26,5,32,17
	c16.67,38.67,20,84.89,37.95,122.24c4.49,9.34,9.9,18.08,16.68,25.78C1506,936,1553,936,1595,939c11,1,20,7,28,14
	c51,48,92,108,162,128c64,19,118-25,170.01-53.41"/>
<path id="XMLID_37_" class="st0" d="M4,980.5c0,0,23.6,0,65.57,0c20.98,0,46.55,0,75.89-0.12c12.76,0.69,25.42,0.89,37.98,0.68
	c12.56-0.21,25-0.99,37.18-2.82C271,967,304,929,347,900c35-23,74-27,112-14c51,17,96,59,153,45c135-32,269-57,400-1
	c21,9,45,12,68.64,9.52c9.58-1.06,19.05-2.64,28.36-4.77c37.25-8.5,72-25.75,101-53.75c46-44,93-103,161-100c12,1,19,13,23,25
	c12.5,45,14.58,94.86,42.73,130.87c5.63,7.2,12.3,13.85,20.31,19.79C1490,983,1528,998,1571,1007c9,1,16,5,24,10
	c69,46,132,102,216,99c54-2,98-36,144.12-60.08"/>
<path id="XMLID_38_" class="st0" d="M4,1007c0,0,23.6,0,65.57,0c20.98,0,46.55,0,76.06,0c12.56,0,25.06,0.06,37.52,0.07
	c12.46,0.02,24.88,0,37.21-0.37C242,1005,263,1001,282,987c59-41,118-113,189-54c47,39,105,53,161,29c118-50,247-66,369-19
	c31,12,64,19,97.11,12.38c11.2-1.73,22.28-3.91,33.24-6.57c54.77-13.31,106.4-38.72,152.65-80.81c18-17,55-37,69-7
	c21,45,26,102,73.56,127.31c8.56,5.21,17.12,10.52,25.63,15.96c7.1,4.53,14.17,9.15,21.23,13.82C1502,1038,1534,1046,1564,1066
	c121,80,275,110,390.55,16.98"/>
<path id="XMLID_39_" class="st0" d="M4,1033.5c0,0,53.11,0,141.63,0c14.75,0,30.49,0,47.1-0.02c8.3-0.01,16.83-0.02,25.55-0.04
	C280,1040,326,999,375,965c17-12,37-12,55-4c53,24,109,69,167,41c140-67,294-102,440-29c32,16,69,14,102.7,2.47
	c10.55-2.73,21.02-5.84,31.42-9.22C1212.75,952.75,1253.5,935,1295,920c10-4,20,3,25,11c26,37,47,75,87.29,94.81
	c9.36,5.6,18.67,11.18,27.95,16.72c9.28,5.54,18.53,11.05,27.78,16.49s18.48,10.83,27.73,16.07C1501,1080,1511,1087,1522,1091
	c47,15,90,36,135,56c98,43,209,16,296.36-38.16"/>
<path id="XMLID_40_" class="st0" d="M4,1060c0,0,53.11,0,141.63,0c22.13,0,46.47,0,72.75,0c8.76,0,17.73,0,26.87-0.07
	C279,1061,315,1056,343,1034c29-22,63-35,97-21c67,29,156,64,211,14c115-102,269-87,396-31c33,15,70,14,106.4,7.35
	c13.17-1.89,26.23-4.17,39.32-6.87c13.07-2.71,26.16-5.85,39.29-9.47c23-6,45-2,64,12c25,18,49,33,75.97,44.78
	c9,4.18,17.93,8.7,26.77,13.56c8.84,4.86,17.6,10.08,26.26,15.66c11.64,7.5,23.44,14.77,35.37,21.77s23.99,13.72,36.17,20.13
	C1626,1172,1781,1223,1914.66,1153.64c12.48-5.97,24.79-12.59,36.98-20.05"/>
<path id="XMLID_41_" class="st0" d="M4,1086.5c0,0,94.42,0,241.29,0c9.18,0,18.54-0.03,27.84-0.34C311,1085,347,1077,385,1069
	c20-3,38-6,58-5c92,7,196,31,279-16c27-88,139-92,211-67c86,30,168,70,260.47,57.97c12.52-0.09,25.03-0.09,37.53,0.03
	c36,1,70,18,104.72,29.42c12.6,4.72,25.03,10.2,37.28,16.58c33.38,17.44,67.88,34.66,103.15,50.44
	c11.76,5.26,23.6,10.35,35.52,15.24C1639,1197,1785,1237,1913.88,1175.28c11.94-5.26,23.8-11.23,35.58-17.96"/>
<path id="XMLID_42_" class="st0" d="M4,1113c0,0,105.03,0,265.86,0c10.72,0,21.65-0.04,32.53-0.31C396,1104,489,1108,583,1102
	c76-4,178,13,224-74c30-57,118-28,172,0c69,35,143,50,218.65,50.31c11.22,0.82,22.34,1.89,33.44,3.28
	c11.08,1.39,22.14,3.1,33.17,5.2c12.08,2.28,24.16,5.01,36.14,8.33s23.85,7.25,35.6,11.87c60.94,23.12,123.73,49.18,187.43,70.88
	c12.74,4.34,25.46,8.41,38.01,12.02C1661,1216,1769,1242,1870.51,1210.3c12.95-3.65,25.72-7.88,38.43-12.86
	c12.71-4.98,25.38-10.71,38-17.27"/>
<path id="XMLID_43_" class="st0" d="M4,1139.5c0,0,119.5,0,298.75,0c9.96,0,20.09-0.01,30.25-0.11C478,1138,621,1135,766,1121
	c25-3,49-13,64-35c24-35,62-51,100-36c91,35,182,69,281.01,66.45c12.09,1.04,24.15,2.29,36.17,3.79
	c60.07,7.51,119.32,21.26,176.82,45.76c35.14,15,71.34,28.76,108.2,40.37c12.28,3.87,24.64,7.5,37.01,10.81
	C1667,1243,1772,1254,1870.68,1228.1c12.4-3.18,24.73-6.9,36.98-11.19c12.25-4.29,24.42-9.16,36.51-14.65"/>
</svg>
